<svg viewBox="0 0 900 620" xmlns="http://www.w3.org/2000/svg" width="900" height="620">
  <defs>
    <filter id="glow-blue" x="-30%" y="-30%" width="160%" height="160%">
      <feGaussianBlur stdDeviation="3" result="blur"/>
      <feMerge><feMergeNode in="blur"/><feMergeNode in="SourceGraphic"/></feMerge>
    </filter>
    <marker id="arr-blue"   markerWidth="6" markerHeight="6" refX="5" refY="3" orient="auto"><path d="M0,0 L6,3 L0,6 Z" fill="#00d4ff"/></marker>
    <marker id="arr-green"  markerWidth="6" markerHeight="6" refX="5" refY="3" orient="auto"><path d="M0,0 L6,3 L0,6 Z" fill="#00ff88"/></marker>
    <marker id="arr-yellow" markerWidth="6" markerHeight="6" refX="5" refY="3" orient="auto"><path d="M0,0 L6,3 L0,6 Z" fill="#ffd600"/></marker>
    <marker id="arr-orange" markerWidth="6" markerHeight="6" refX="5" refY="3" orient="auto"><path d="M0,0 L6,3 L0,6 Z" fill="#ff8c42"/></marker>
    <marker id="arr-red"    markerWidth="6" markerHeight="6" refX="5" refY="3" orient="auto"><path d="M0,0 L6,3 L0,6 Z" fill="#ff4d6d"/></marker>
    <pattern id="grid" x="0" y="0" width="20" height="20" patternUnits="userSpaceOnUse">
      <path d="M20,0 L0,0 0,20" fill="none" stroke="#131e2e" stroke-width="0.5"/>
    </pattern>
  </defs>

  <!-- ── Background ── -->
  <rect width="900" height="620" fill="#0a0e1a"/>
  <rect width="900" height="620" fill="url(#grid)"/>

  <!-- ── Title ── -->
  <text x="450" y="26" text-anchor="middle" font-family="monospace" font-size="13" fill="#00d4ff" letter-spacing="3">// WIRING DIAGRAM — RPi 5 CONTROLLER</text>
  <text x="450" y="42" text-anchor="middle" font-family="monospace" font-size="9"  fill="#4a6080" letter-spacing="1">Raspberry Pi 5 · 6 Push Buttons · LoRa SX1278</text>

  <!-- ══════════════════════════════════════════ -->
  <!-- PUSH BUTTONS (6 nút) -->
  <!-- ══════════════════════════════════════════ -->
  <text x="75" y="57" text-anchor="middle" font-family="monospace" font-size="8" fill="#4a6080" letter-spacing="2">BUTTONS</text>

  <!-- Nút 1 – NODE1 -->
  <rect x="10" y="64" width="130" height="48" rx="6" fill="#0f1c2e" stroke="#1e3a5f" stroke-width="1.5"/>
  <text x="75" y="84"  text-anchor="middle" font-family="monospace" font-size="9"  fill="#00d4ff">BTN 1 – NODE1</text>
  <text x="75" y="97"  text-anchor="middle" font-family="monospace" font-size="8"  fill="#4a6080">GP2 → GND</text>
  <circle cx="138" cy="88" r="4" fill="#00d4ff"/>

  <!-- Nút 2 – NODE2 -->
  <rect x="10" y="124" width="130" height="48" rx="6" fill="#0f1c2e" stroke="#1e3a5f" stroke-width="1.5"/>
  <text x="75" y="144" text-anchor="middle" font-family="monospace" font-size="9"  fill="#00ff88">BTN 2 – NODE2</text>
  <text x="75" y="157" text-anchor="middle" font-family="monospace" font-size="8"  fill="#4a6080">GP3 → GND</text>
  <circle cx="138" cy="148" r="4" fill="#00ff88"/>

  <!-- Nút 3 – NODE3 -->
  <rect x="10" y="184" width="130" height="48" rx="6" fill="#0f1c2e" stroke="#1e3a5f" stroke-width="1.5"/>
  <text x="75" y="204" text-anchor="middle" font-family="monospace" font-size="9"  fill="#ffd600">BTN 3 – NODE3</text>
  <text x="75" y="217" text-anchor="middle" font-family="monospace" font-size="8"  fill="#4a6080">GP4 → GND</text>
  <circle cx="138" cy="208" r="4" fill="#ffd600"/>

  <!-- Nút 4 – NODE4 -->
  <rect x="10" y="244" width="130" height="48" rx="6" fill="#0f1c2e" stroke="#1e3a5f" stroke-width="1.5"/>
  <text x="75" y="264" text-anchor="middle" font-family="monospace" font-size="9"  fill="#ff8c42">BTN 4 – NODE4</text>
  <text x="75" y="277" text-anchor="middle" font-family="monospace" font-size="8"  fill="#4a6080">GP5 → GND</text>
  <circle cx="138" cy="268" r="4" fill="#ff8c42"/>

  <!-- Nút 5 – NODE5 -->
  <rect x="10" y="304" width="130" height="48" rx="6" fill="#0f1c2e" stroke="#1e3a5f" stroke-width="1.5"/>
  <text x="75" y="324" text-anchor="middle" font-family="monospace" font-size="9"  fill="#b388ff">BTN 5 – NODE5</text>
  <text x="75" y="337" text-anchor="middle" font-family="monospace" font-size="8"  fill="#4a6080">GP6 → GND</text>
  <circle cx="138" cy="328" r="4" fill="#b388ff"/>

  <!-- Nút 6 – ALL -->
  <rect x="10" y="364" width="130" height="48" rx="6" fill="#1a100a" stroke="#4d2010" stroke-width="1.5"/>
  <text x="75" y="384" text-anchor="middle" font-family="monospace" font-size="9"  fill="#ff4d6d">BTN 6 – ALL</text>
  <text x="75" y="397" text-anchor="middle" font-family="monospace" font-size="8"  fill="#4a6080">GP7 → GND</text>
  <circle cx="138" cy="388" r="4" fill="#ff4d6d"/>

  <!-- ══════════════════════════════════════════ -->
  <!-- PULL-UP RESISTORS (10kΩ) -->
  <!-- ══════════════════════════════════════════ -->
  <text x="248" y="57" text-anchor="middle" font-family="monospace" font-size="8" fill="#4a6080" letter-spacing="2">PULL-UP</text>

  <!-- resistor symbol × 6 -->
  <!-- R1 -->
  <rect x="190" y="78" width="56" height="20" rx="3" fill="#141a10" stroke="#2a4020" stroke-width="1.2"/>
  <text x="218" y="92" text-anchor="middle" font-family="monospace" font-size="8" fill="#00ff88">10kΩ</text>
  <line x1="190" y1="88" x2="178" y2="88" stroke="#4a6080" stroke-width="1" stroke-dasharray="3,2"/>
  <line x1="246" y1="88" x2="258" y2="88" stroke="#00d4ff" stroke-width="1.2"/>
  <!-- 3V3 tap -->
  <line x1="178" y1="88" x2="178" y2="468" stroke="#4a6080" stroke-width="0.8" stroke-dasharray="2,3"/>

  <!-- R2 -->
  <rect x="190" y="138" width="56" height="20" rx="3" fill="#141a10" stroke="#2a4020" stroke-width="1.2"/>
  <text x="218" y="152" text-anchor="middle" font-family="monospace" font-size="8" fill="#00ff88">10kΩ</text>
  <line x1="190" y1="148" x2="178" y2="148" stroke="#4a6080" stroke-width="1" stroke-dasharray="3,2"/>
  <line x1="246" y1="148" x2="258" y2="148" stroke="#00ff88" stroke-width="1.2"/>

  <!-- R3 -->
  <rect x="190" y="198" width="56" height="20" rx="3" fill="#141a10" stroke="#2a4020" stroke-width="1.2"/>
  <text x="218" y="212" text-anchor="middle" font-family="monospace" font-size="8" fill="#00ff88">10kΩ</text>
  <line x1="190" y1="208" x2="178" y2="208" stroke="#4a6080" stroke-width="1" stroke-dasharray="3,2"/>
  <line x1="246" y1="208" x2="258" y2="208" stroke="#ffd600" stroke-width="1.2"/>

  <!-- R4 -->
  <rect x="190" y="258" width="56" height="20" rx="3" fill="#141a10" stroke="#2a4020" stroke-width="1.2"/>
  <text x="218" y="272" text-anchor="middle" font-family="monospace" font-size="8" fill="#00ff88">10kΩ</text>
  <line x1="190" y1="268" x2="178" y2="268" stroke="#4a6080" stroke-width="1" stroke-dasharray="3,2"/>
  <line x1="246" y1="268" x2="258" y2="268" stroke="#ff8c42" stroke-width="1.2"/>

  <!-- R5 -->
  <rect x="190" y="318" width="56" height="20" rx="3" fill="#141a10" stroke="#2a4020" stroke-width="1.2"/>
  <text x="218" y="332" text-anchor="middle" font-family="monospace" font-size="8" fill="#00ff88">10kΩ</text>
  <line x1="190" y1="328" x2="178" y2="328" stroke="#4a6080" stroke-width="1" stroke-dasharray="3,2"/>
  <line x1="246" y1="328" x2="258" y2="328" stroke="#b388ff" stroke-width="1.2"/>

  <!-- R6 -->
  <rect x="190" y="378" width="56" height="20" rx="3" fill="#141a10" stroke="#2a4020" stroke-width="1.2"/>
  <text x="218" y="392" text-anchor="middle" font-family="monospace" font-size="8" fill="#00ff88">10kΩ</text>
  <line x1="190" y1="388" x2="178" y2="388" stroke="#4a6080" stroke-width="1" stroke-dasharray="3,2"/>
  <line x1="246" y1="388" x2="258" y2="388" stroke="#ff4d6d" stroke-width="1.2"/>

  <!-- 3V3 bus vertical -->
  <line x1="178" y1="88"  x2="178" y2="388" stroke="#4a6080" stroke-width="0.8" stroke-dasharray="2,3"/>
  <text x="164" y="244" text-anchor="middle" font-family="monospace" font-size="7" fill="#4a6080" transform="rotate(-90,164,244)">3.3V PULL-UP</text>

  <!-- Btn → Resistor wires -->
  <line x1="138" y1="88"  x2="190" y2="88"  stroke="#00d4ff" stroke-width="1.2"/>
  <line x1="138" y1="148" x2="190" y2="148" stroke="#00ff88" stroke-width="1.2"/>
  <line x1="138" y1="208" x2="190" y2="208" stroke="#ffd600" stroke-width="1.2"/>
  <line x1="138" y1="268" x2="190" y2="268" stroke="#ff8c42" stroke-width="1.2"/>
  <line x1="138" y1="328" x2="190" y2="328" stroke="#b388ff" stroke-width="1.2"/>
  <line x1="138" y1="388" x2="190" y2="388" stroke="#ff4d6d" stroke-width="1.2"/>

  <!-- ══════════════════════════════════════════ -->
  <!-- RASPBERRY PI 5 -->
  <!-- ══════════════════════════════════════════ -->
  <text x="450" y="57" text-anchor="middle" font-family="monospace" font-size="8" fill="#4a6080" letter-spacing="2">CONTROLLER</text>

  <rect x="300" y="64" width="250" height="400" rx="12" fill="#0e0c08" stroke="#3a3010" stroke-width="2"/>
  <text x="425" y="90"  text-anchor="middle" font-family="monospace" font-size="13" fill="#ffd600">Raspberry Pi 5</text>
  <text x="425" y="104" text-anchor="middle" font-family="monospace" font-size="8"  fill="#4a6080">BCM2712 · 4-core · 64-bit</text>

  <!-- GPIO input pins (left side) -->
  <text x="310" y="128" font-family="monospace" font-size="7" fill="#4a6080">GPIO INPUT</text>
  <circle cx="302" cy="140" r="4" fill="#00d4ff"/><text x="312" y="144" font-family="monospace" font-size="8" fill="#00d4ff">GP2  – NODE1</text>
  <circle cx="302" cy="160" r="4" fill="#00ff88"/><text x="312" y="164" font-family="monospace" font-size="8" fill="#00ff88">GP3  – NODE2</text>
  <circle cx="302" cy="180" r="4" fill="#ffd600"/><text x="312" y="184" font-family="monospace" font-size="8" fill="#ffd600">GP4  – NODE3</text>
  <circle cx="302" cy="200" r="4" fill="#ff8c42"/><text x="312" y="204" font-family="monospace" font-size="8" fill="#ff8c42">GP5  – NODE4</text>
  <circle cx="302" cy="220" r="4" fill="#b388ff"/><text x="312" y="224" font-family="monospace" font-size="8" fill="#b388ff">GP6  – NODE5</text>
  <circle cx="302" cy="240" r="4" fill="#ff4d6d"/><text x="312" y="244" font-family="monospace" font-size="8" fill="#ff4d6d">GP7  – ALL  </text>

  <!-- GND pins for buttons -->
  <text x="310" y="264" font-family="monospace" font-size="7" fill="#4a6080">GND (BUTTONS)</text>
  <circle cx="302" cy="276" r="4" fill="#4a6080"/><text x="312" y="280" font-family="monospace" font-size="8" fill="#4a6080">GND × 6</text>

  <!-- Divider -->
  <line x1="315" y1="295" x2="535" y2="295" stroke="#1e2d45" stroke-width="1" stroke-dasharray="4,3"/>

  <!-- UART pins (right side) -->
  <text x="310" y="314" font-family="monospace" font-size="7" fill="#4a6080">UART0 (LoRa)</text>
  <circle cx="548" cy="326" r="4" fill="#ff8c42"/><text x="420" y="330" font-family="monospace" font-size="8" fill="#ff8c42">GPIO14 TX</text>
  <circle cx="548" cy="346" r="4" fill="#ff8c42"/><text x="420" y="350" font-family="monospace" font-size="8" fill="#ff8c42">GPIO15 RX</text>

  <!-- Power pins -->
  <text x="310" y="370" font-family="monospace" font-size="7" fill="#4a6080">POWER</text>
  <circle cx="548" cy="382" r="4" fill="#ff4d6d"/><text x="420" y="386" font-family="monospace" font-size="8" fill="#ff4d6d">3V3 OUT   </text>
  <circle cx="548" cy="402" r="4" fill="#4a6080"/><text x="420" y="406" font-family="monospace" font-size="8" fill="#4a6080">GND       </text>
  <circle cx="548" cy="422" r="4" fill="#ff4d6d"/><text x="420" y="426" font-family="monospace" font-size="8" fill="#ff4d6d">5V (USB-C)</text>

  <!-- ══════════════════════════════════════════ -->
  <!-- LoRa SX1278 -->
  <!-- ══════════════════════════════════════════ -->
  <text x="760" y="57" text-anchor="middle" font-family="monospace" font-size="8" fill="#4a6080" letter-spacing="2">LORA</text>

  <rect x="680" y="280" width="120" height="170" rx="8" fill="#1a0f10" stroke="#4d1520" stroke-width="1.5"/>
  <text x="740" y="302" text-anchor="middle" font-family="monospace" font-size="10" fill="#ff4d6d">SX1278</text>
  <text x="740" y="314" text-anchor="middle" font-family="monospace" font-size="8"  fill="#4a6080">LoRa 433MHz</text>

  <circle cx="682" cy="330" r="4" fill="#ff8c42"/><text x="692" y="334" font-family="monospace" font-size="8" fill="#ff8c42">RXD</text>
  <circle cx="682" cy="350" r="4" fill="#ff8c42"/><text x="692" y="354" font-family="monospace" font-size="8" fill="#ff8c42">TXD</text>
  <circle cx="682" cy="370" r="4" fill="#ff4d6d"/><text x="692" y="374" font-family="monospace" font-size="8" fill="#ff4d6d">VCC</text>
  <circle cx="682" cy="390" r="4" fill="#4a6080"/><text x="692" y="394" font-family="monospace" font-size="8" fill="#4a6080">GND</text>
  <circle cx="682" cy="410" r="4" fill="#4a6080"/><text x="692" y="414" font-family="monospace" font-size="8" fill="#4a6080">M0 → GND</text>
  <circle cx="682" cy="430" r="4" fill="#4a6080"/><text x="692" y="434" font-family="monospace" font-size="8" fill="#4a6080">M1 → GND</text>

  <!-- Antenna -->
  <line x1="740" y1="280" x2="740" y2="258" stroke="#ff4d6d" stroke-width="1.5"/>
  <line x1="740" y1="258" x2="726" y2="242" stroke="#ff4d6d" stroke-width="1.5"/>
  <line x1="740" y1="258" x2="754" y2="242" stroke="#ff4d6d" stroke-width="1.5"/>
  <text x="740" y="236" text-anchor="middle" font-family="monospace" font-size="8" fill="#ff4d6d">ANT</text>

  <!-- ══════════════════════════════════════════ -->
  <!-- WIRES: Resistor → RPi GPIO -->
  <!-- ══════════════════════════════════════════ -->
  <line x1="258" y1="88"  x2="302" y2="140" stroke="#00d4ff" stroke-width="1.5" marker-end="url(#arr-blue)"/>
  <line x1="258" y1="148" x2="302" y2="160" stroke="#00ff88" stroke-width="1.5" marker-end="url(#arr-green)"/>
  <line x1="258" y1="208" x2="302" y2="180" stroke="#ffd600" stroke-width="1.5" marker-end="url(#arr-yellow)"/>
  <line x1="258" y1="268" x2="302" y2="200" stroke="#ff8c42" stroke-width="1.5" marker-end="url(#arr-orange)"/>
  <line x1="258" y1="328" x2="302" y2="220" stroke="#b388ff" stroke-width="1.5" marker-end="url(#arr-blue)"/>
  <line x1="258" y1="388" x2="302" y2="240" stroke="#ff4d6d" stroke-width="1.5" marker-end="url(#arr-red)"/>

  <!-- WIRES: RPi UART → LoRa -->
  <!-- TX → RXD -->
  <path d="M548,326 L620,326 L620,330 L682,330" stroke="#ff8c42" stroke-width="1.5" fill="none" marker-end="url(#arr-orange)"/>
  <!-- RX ← TXD -->
  <path d="M548,346 L624,346 L624,350 L682,350" stroke="#ff8c42" stroke-width="1.5" fill="none" stroke-dasharray="5,3" marker-end="url(#arr-orange)"/>
  <text x="600" y="322" font-family="monospace" font-size="7" fill="#ff8c42">TX→RXD</text>
  <text x="600" y="342" font-family="monospace" font-size="7" fill="#ff8c42">RX←TXD</text>

  <!-- WIRES: RPi 3V3 → LoRa VCC -->
  <path d="M548,382 L628,382 L628,370 L682,370" stroke="#ff4d6d" stroke-width="1" fill="none" stroke-dasharray="4,3"/>
  <!-- WIRES: RPi GND → LoRa GND -->
  <path d="M548,402 L632,402 L632,390 L682,390" stroke="#4a6080" stroke-width="1" fill="none" stroke-dasharray="3,3"/>
  <!-- M0/M1 → GND internal -->
  <line x1="682" y1="410" x2="670" y2="410" stroke="#4a6080" stroke-width="1" stroke-dasharray="3,2"/>
  <line x1="682" y1="430" x2="670" y2="430" stroke="#4a6080" stroke-width="1" stroke-dasharray="3,2"/>
  <line x1="670" y1="390" x2="670" y2="430" stroke="#4a6080" stroke-width="1" stroke-dasharray="3,2"/>

  <!-- ══════════════════════════════════════════ -->
  <!-- GND BUS for buttons (bottom) -->
  <!-- ══════════════════════════════════════════ -->
  <!-- All button GNDs connect to a common GND rail, then to RPi GND -->
  <line x1="75"  y1="112" x2="75"  y2="460" stroke="#4a6080" stroke-width="1" stroke-dasharray="2,3"/>
  <line x1="75"  y1="172" x2="75"  y2="460" stroke="#4a6080" stroke-width="0.5"/>
  <line x1="75"  y1="232" x2="75"  y2="460" stroke="#4a6080" stroke-width="0.5"/>
  <line x1="75"  y1="292" x2="75"  y2="460" stroke="#4a6080" stroke-width="0.5"/>
  <line x1="75"  y1="352" x2="75"  y2="460" stroke="#4a6080" stroke-width="0.5"/>
  <line x1="75"  y1="412" x2="75"  y2="460" stroke="#4a6080" stroke-width="0.5"/>

  <!-- GND tap points from each button bottom -->
  <line x1="40"  y1="112" x2="75"  y2="112" stroke="#4a6080" stroke-width="1" stroke-dasharray="2,3"/>
  <line x1="40"  y1="172" x2="75"  y2="172" stroke="#4a6080" stroke-width="1" stroke-dasharray="2,3"/>
  <line x1="40"  y1="232" x2="75"  y2="232" stroke="#4a6080" stroke-width="1" stroke-dasharray="2,3"/>
  <line x1="40"  y1="292" x2="75"  y2="292" stroke="#4a6080" stroke-width="1" stroke-dasharray="2,3"/>
  <line x1="40"  y1="352" x2="75"  y2="352" stroke="#4a6080" stroke-width="1" stroke-dasharray="2,3"/>
  <line x1="40"  y1="412" x2="75"  y2="412" stroke="#4a6080" stroke-width="1" stroke-dasharray="2,3"/>

  <!-- GND bus → RPi GND -->
  <line x1="75"  y1="460" x2="302" y2="460" stroke="#4a6080" stroke-width="1" stroke-dasharray="2,3"/>
  <line x1="302" y1="460" x2="302" y2="276" stroke="#4a6080" stroke-width="1" stroke-dasharray="2,3" marker-end="url(#arr-blue)"/>
  <text x="185" y="456" text-anchor="middle" font-family="monospace" font-size="7" fill="#4a6080">GND BUS</text>

  <!-- 3V3 bus label -->
  <line x1="178" y1="468" x2="302" y2="468" stroke="#ff4d6d" stroke-width="1" stroke-dasharray="4,3"/>
  <line x1="302" y1="468" x2="302" y2="382" stroke="#ff4d6d" stroke-width="1" stroke-dasharray="4,3" marker-end="url(#arr-red)"/>
  <text x="240" y="480" text-anchor="middle" font-family="monospace" font-size="7" fill="#ff4d6d">3.3V BUS</text>

  <!-- ══════════════════════════════════════════ -->
  <!-- NOTE BOX -->
  <!-- ══════════════════════════════════════════ -->
  <rect x="300" y="480" width="250" height="60" rx="6" fill="#0f1a10" stroke="#1a3020" stroke-width="1"/>
  <text x="314" y="496" font-family="monospace" font-size="8" fill="#00ff88">NOTE:</text>
  <text x="314" y="510" font-family="monospace" font-size="7" fill="#4a6080">· Pull-up 10kΩ có thể bỏ nếu dùng</text>
  <text x="314" y="522" font-family="monospace" font-size="7" fill="#4a6080">  pull_up=True trong gpiozero</text>
  <text x="314" y="534" font-family="monospace" font-size="7" fill="#4a6080">· LoRa M0/M1 = GND → transparent mode</text>

  <!-- ══════════════════════════════════════════ -->
  <!-- LEGEND -->
  <!-- ══════════════════════════════════════════ -->
  <rect x="10" y="530" width="840" height="80" rx="6" fill="#0d1220" stroke="#1e2d45" stroke-width="1"/>
  <text x="430" y="546" text-anchor="middle" font-family="monospace" font-size="8" fill="#4a6080" letter-spacing="2">LEGEND</text>

  <line x1="30"  y1="558" x2="58"  y2="558" stroke="#00d4ff" stroke-width="2"/>
  <text x="64"  y="562" font-family="monospace" font-size="8" fill="#c9d6e3">BTN NODE1 (GP2)</text>

  <line x1="185" y1="558" x2="213" y2="558" stroke="#00ff88" stroke-width="2"/>
  <text x="219" y="562" font-family="monospace" font-size="8" fill="#c9d6e3">BTN NODE2 (GP3)</text>

  <line x1="340" y1="558" x2="368" y2="558" stroke="#ffd600" stroke-width="2"/>
  <text x="374" y="562" font-family="monospace" font-size="8" fill="#c9d6e3">BTN NODE3 (GP4)</text>

  <line x1="495" y1="558" x2="523" y2="558" stroke="#ff8c42" stroke-width="2"/>
  <text x="529" y="562" font-family="monospace" font-size="8" fill="#c9d6e3">BTN NODE4 (GP5)</text>

  <line x1="650" y1="558" x2="678" y2="558" stroke="#b388ff" stroke-width="2"/>
  <text x="684" y="562" font-family="monospace" font-size="8" fill="#c9d6e3">BTN NODE5 (GP6)</text>

  <line x1="30"  y1="580" x2="58"  y2="580" stroke="#ff4d6d" stroke-width="2"/>
  <text x="64"  y="584" font-family="monospace" font-size="8" fill="#c9d6e3">BTN ALL (GP7)</text>

  <line x1="185" y1="580" x2="213" y2="580" stroke="#ff8c42" stroke-width="2"/>
  <text x="219" y="584" font-family="monospace" font-size="8" fill="#c9d6e3">UART LoRa</text>

  <line x1="340" y1="580" x2="368" y2="580" stroke="#ff4d6d" stroke-width="1.5" stroke-dasharray="4,3"/>
  <text x="374" y="584" font-family="monospace" font-size="8" fill="#c9d6e3">3.3V Power</text>

  <line x1="495" y1="580" x2="523" y2="580" stroke="#4a6080" stroke-width="1.5" stroke-dasharray="3,3"/>
  <text x="529" y="584" font-family="monospace" font-size="8" fill="#c9d6e3">GND</text>

  <!-- border -->
  <rect x="2" y="2" width="896" height="616" rx="10" fill="none" stroke="#1e2d45" stroke-width="1.5"/>
</svg>
